<svg width="444" height="218" viewBox="0 0 444 218" fill="none" xmlns="http://www.w3.org/2000/svg">
<g clip-path="url(#clip0_860_354)">
<path d="M2.69401 198.211H0.120117V217.226H1.8717H2.69401H12.067V214.872H2.69401V198.211Z" fill="white"/>
<path d="M24.1146 206C23.6655 205.41 23.0898 204.928 22.4298 204.59C21.6193 204.149 20.7114 203.919 19.7891 203.921C18.6422 203.906 17.5148 204.219 16.54 204.824C15.5843 205.427 14.8012 206.268 14.2669 207.264C13.718 208.331 13.4316 209.514 13.4316 210.714C13.4316 211.914 13.718 213.097 14.2669 214.164C14.7985 215.174 15.5901 216.023 16.56 216.624C17.5319 217.217 18.6507 217.525 19.7891 217.513C20.7175 217.531 21.636 217.32 22.4633 216.898C23.118 216.554 23.6852 216.065 24.1213 215.468V217.239H26.6082V204.215H24.1146V206ZM23.1586 213.95C22.7858 214.361 22.3276 214.687 21.816 214.903C21.3044 215.119 20.7518 215.22 20.1969 215.2C19.4293 215.213 18.6729 215.014 18.0108 214.625C17.3769 214.246 16.859 213.7 16.5132 213.047C16.1465 212.332 15.9627 211.537 15.9784 210.734C15.9635 209.939 16.1474 209.153 16.5132 208.447C16.8539 207.795 17.3673 207.249 17.9974 206.869C18.6598 206.497 19.4069 206.301 20.1668 206.301C20.9268 206.301 21.6739 206.497 22.3362 206.869C22.9547 207.24 23.4536 207.781 23.7736 208.427C24.1273 209.158 24.3015 209.962 24.2817 210.774C24.325 211.937 23.9234 213.073 23.1586 213.95Z" fill="white"/>
<path d="M40.2665 204.843C39.3031 204.233 38.1845 203.913 37.0441 203.921C36.1268 203.907 35.2201 204.118 34.4034 204.536C33.7194 204.884 33.1247 205.385 32.6652 206V197.643H30.1982V217.226H32.6652V215.427C33.1148 216.039 33.7008 216.538 34.3766 216.885C35.2055 217.302 36.1229 217.513 37.0508 217.5C38.1836 217.515 39.2977 217.211 40.2665 216.624C41.2222 216.03 42.0022 215.193 42.5262 214.197C43.0667 213.127 43.3484 211.946 43.3484 210.747C43.3484 209.548 43.0667 208.367 42.5262 207.297C42.0029 206.294 41.2232 205.447 40.2665 204.843ZM40.2665 213.02C39.9188 213.675 39.4045 214.226 38.7757 214.618C38.1249 215.011 37.376 215.21 36.6163 215.193C35.8593 215.205 35.114 215.006 34.4636 214.618C33.8418 214.238 33.3391 213.692 33.0128 213.04C32.6634 212.33 32.4892 211.546 32.5047 210.754C32.4889 209.947 32.6678 209.149 33.0262 208.427C33.3507 207.774 33.8538 207.227 34.4769 206.849C35.1333 206.466 35.883 206.271 36.643 206.288C37.3858 206.269 38.1187 206.46 38.7582 206.839C39.3977 207.217 39.918 207.767 40.2598 208.427C40.6202 209.143 40.8078 209.933 40.8078 210.734C40.8078 211.535 40.6202 212.325 40.2598 213.04L40.2665 213.02Z" fill="white"/>
<path d="M55.5229 204.83C54.4789 204.226 53.2926 203.912 52.0866 203.921C50.874 203.902 49.6792 204.214 48.6302 204.823C47.6232 205.414 46.7851 206.255 46.1967 207.264C45.5876 208.298 45.2732 209.48 45.2875 210.68C45.259 211.591 45.4136 212.497 45.7423 213.347C46.0709 214.196 46.5669 214.971 47.2008 215.625C47.8347 216.28 48.5935 216.8 49.4322 217.155C50.2709 217.51 51.1725 217.693 52.0833 217.693C52.9941 217.693 53.8956 217.51 54.7343 217.155C55.5731 216.8 56.3319 216.28 56.9657 215.625C57.5996 214.971 58.0956 214.196 58.4243 213.347C58.7529 212.497 58.9076 211.591 58.879 210.68C58.8931 209.496 58.5907 208.329 58.003 207.301C57.4154 206.272 56.5638 205.419 55.5363 204.83H55.5229ZM55.7837 212.967C55.4173 213.627 54.881 214.177 54.2303 214.56C53.5796 214.943 52.8383 215.146 52.0833 215.146C51.3282 215.146 50.5869 214.943 49.9362 214.56C49.2856 214.177 48.7492 213.627 48.3829 212.967C48.011 212.263 47.8225 211.476 47.8347 210.68C47.8223 209.897 48.011 209.123 48.3829 208.434C48.7348 207.788 49.2575 207.251 49.8938 206.883C50.5604 206.5 51.3183 206.306 52.0866 206.321C52.8487 206.305 53.6003 206.5 54.2594 206.883C54.8928 207.255 55.4145 207.791 55.7703 208.434C56.1526 209.12 56.3464 209.895 56.3319 210.68C56.3441 211.476 56.1555 212.263 55.7837 212.967Z" fill="white"/>
<path d="M69.4216 204.282C68.8584 204.048 68.2532 203.932 67.6433 203.941C67.0083 203.899 66.3726 204.012 65.7905 204.269C65.2084 204.527 64.6973 204.921 64.3006 205.419C64.2204 205.526 64.1535 205.653 64.08 205.766V204.215H61.6465V217.226H64.1067V209.805C64.0678 209.323 64.1251 208.839 64.2755 208.379C64.4259 207.92 64.6662 207.496 64.9825 207.13C65.2782 206.84 65.6297 206.612 66.0158 206.462C66.402 206.311 66.8146 206.241 67.2288 206.254C67.6208 206.247 68.0108 206.313 68.3787 206.448C68.7266 206.584 69.0379 206.799 69.2879 207.077L70.8991 205.405C70.4982 204.924 69.9929 204.54 69.4216 204.282Z" fill="white"/>
<path d="M82.0769 206C81.6315 205.398 81.0555 204.904 80.3921 204.556C79.5668 204.129 78.6469 203.917 77.718 203.941C76.571 203.926 75.4437 204.239 74.4688 204.843C73.5166 205.44 72.7357 206.274 72.2025 207.264C71.6535 208.331 71.3672 209.514 71.3672 210.714C71.3672 211.914 71.6535 213.096 72.2025 214.164C72.7343 215.162 73.5238 216 74.4889 216.591C75.4635 217.183 76.5843 217.491 77.7246 217.48C78.653 217.498 79.5715 217.286 80.3988 216.865C81.0522 216.519 81.619 216.03 82.0568 215.434V217.206H84.5505V204.215H82.0568L82.0769 206ZM81.1208 213.95C80.7481 214.361 80.2899 214.686 79.7783 214.902C79.2667 215.118 78.7141 215.22 78.1592 215.2C77.3894 215.212 76.631 215.013 75.9664 214.625C75.3339 214.246 74.818 213.7 74.4755 213.047C74.1088 212.332 73.925 211.537 73.9407 210.734C73.9258 209.939 74.1096 209.153 74.4755 208.447C74.8144 207.796 75.3254 207.25 75.953 206.869C76.6166 206.497 77.3648 206.301 78.1258 206.301C78.8867 206.301 79.6349 206.497 80.2985 206.869C80.9156 207.242 81.414 207.782 81.7359 208.427C82.0864 209.159 82.2605 209.963 82.244 210.774C82.2873 211.937 81.8856 213.072 81.1208 213.95Z" fill="white"/>
<path d="M92.5667 198.759H90.1065V204.215H86.8975V206.461H90.1065V217.226H92.5667V206.461H95.7757V204.215H92.5667V198.759Z" fill="white"/>
<path d="M106.485 198.679L104.54 196.733L100.977 201.146L102.1 202.269L106.485 198.679Z" fill="white"/>
<path d="M107.154 204.83C106.109 204.233 104.922 203.926 103.718 203.941C102.507 203.924 101.315 204.236 100.268 204.844C99.2617 205.429 98.4217 206.262 97.828 207.264C97.2209 208.299 96.9088 209.481 96.9254 210.68C96.9087 211.895 97.2205 213.092 97.828 214.144C98.4167 215.17 99.2623 216.024 100.282 216.624C101.333 217.216 102.518 217.527 103.725 217.527C104.931 217.527 106.116 217.216 107.168 216.624C108.2 216.024 109.054 215.159 109.641 214.119C110.229 213.079 110.529 211.902 110.51 210.707C110.529 209.522 110.228 208.354 109.64 207.324C109.052 206.295 108.198 205.443 107.168 204.857L107.154 204.83ZM107.415 212.967C106.839 213.954 105.897 214.672 104.794 214.967C103.69 215.261 102.515 215.107 101.525 214.538C100.89 214.162 100.369 213.618 100.021 212.967C99.6465 212.264 99.4578 211.477 99.4726 210.68C99.4568 209.897 99.6458 209.122 100.021 208.434C100.368 207.787 100.889 207.25 101.525 206.883C102.192 206.502 102.95 206.308 103.718 206.321C104.482 206.307 105.235 206.501 105.897 206.883C106.527 207.258 107.046 207.793 107.402 208.434C107.784 209.12 107.978 209.895 107.963 210.68C107.978 211.477 107.789 212.264 107.415 212.967Z" fill="white"/>
<path d="M121.053 204.282C120.49 204.048 119.884 203.932 119.275 203.941C118.64 203.899 118.004 204.012 117.422 204.269C116.84 204.527 116.328 204.921 115.932 205.419C115.852 205.526 115.791 205.653 115.718 205.766V204.215H113.251V217.226H115.718V209.805C115.677 209.323 115.734 208.838 115.885 208.379C116.035 207.919 116.276 207.495 116.594 207.13C116.889 206.839 117.24 206.611 117.626 206.46C118.013 206.31 118.426 206.24 118.84 206.254C119.232 206.248 119.622 206.314 119.99 206.448C120.335 206.586 120.643 206.801 120.892 207.077L122.51 205.405C122.115 204.927 121.617 204.543 121.053 204.282Z" fill="white"/>
<path d="M125.519 198.458C125.311 198.452 125.103 198.489 124.91 198.568C124.717 198.646 124.542 198.764 124.396 198.913C124.254 199.06 124.142 199.234 124.068 199.424C123.993 199.615 123.957 199.818 123.962 200.023C123.956 200.232 123.991 200.44 124.065 200.635C124.14 200.83 124.252 201.008 124.396 201.16C124.542 201.308 124.717 201.424 124.911 201.501C125.104 201.579 125.311 201.615 125.519 201.608C125.728 201.616 125.935 201.581 126.129 201.504C126.322 201.427 126.497 201.309 126.642 201.16C126.788 201.009 126.903 200.831 126.978 200.636C127.054 200.441 127.09 200.232 127.084 200.023C127.089 199.818 127.052 199.614 126.976 199.423C126.9 199.232 126.787 199.059 126.642 198.913C126.498 198.763 126.323 198.644 126.129 198.566C125.936 198.488 125.728 198.451 125.519 198.458Z" fill="white"/>
<path d="M126.756 204.215H124.289V217.226H126.756V204.215Z" fill="white"/>
<path d="M139.779 204.83C138.734 204.233 137.547 203.926 136.343 203.941C135.13 203.923 133.935 204.235 132.886 204.844C131.882 205.429 131.044 206.263 130.453 207.264C129.846 208.299 129.534 209.481 129.55 210.681C129.553 211.877 129.869 213.052 130.467 214.088C131.066 215.124 131.926 215.984 132.962 216.583C133.997 217.182 135.172 217.499 136.369 217.502C137.565 217.504 138.741 217.192 139.779 216.598C140.794 216.004 141.639 215.159 142.233 214.144C142.84 213.092 143.152 211.895 143.135 210.681C143.151 209.477 142.839 208.291 142.233 207.251C141.64 206.243 140.794 205.409 139.779 204.83ZM140.04 212.967C139.464 213.954 138.522 214.672 137.419 214.967C136.315 215.261 135.14 215.107 134.15 214.538C133.515 214.162 132.994 213.618 132.646 212.967C132.271 212.264 132.083 211.477 132.098 210.681C132.082 209.897 132.271 209.123 132.646 208.434C132.993 207.787 133.514 207.25 134.15 206.883C134.817 206.502 135.575 206.308 136.343 206.321C137.105 206.306 137.857 206.5 138.516 206.883C139.149 207.255 139.671 207.791 140.027 208.434C140.409 209.12 140.603 209.895 140.588 210.681C140.6 211.477 140.412 212.263 140.04 212.967Z" fill="white"/>
<path d="M161.46 206.02C161.003 205.409 160.413 204.909 159.736 204.556C158.925 204.132 158.023 203.914 157.108 203.921C155.967 203.904 154.846 204.217 153.879 204.824C152.927 205.428 152.149 206.269 151.619 207.264C151.071 208.331 150.784 209.514 150.784 210.714C150.784 211.914 151.071 213.097 151.619 214.164C152.147 215.157 152.927 215.994 153.879 216.591C154.85 217.187 155.969 217.495 157.108 217.48C158.036 217.496 158.954 217.285 159.782 216.865C160.453 216.516 161.034 216.018 161.48 215.408V217.206H163.974V197.663H161.48L161.46 206.02ZM159.669 214.619C159.02 215.01 158.273 215.209 157.516 215.194C156.75 215.208 155.996 215.009 155.337 214.619C154.71 214.236 154.199 213.691 153.859 213.041C153.492 212.326 153.309 211.531 153.324 210.727C153.309 209.933 153.493 209.147 153.859 208.441C154.194 207.791 154.701 207.246 155.323 206.863C155.977 206.472 156.728 206.273 157.489 206.288C158.245 206.271 158.99 206.47 159.635 206.863C160.251 207.247 160.753 207.787 161.093 208.427C161.461 209.146 161.643 209.947 161.621 210.754C161.634 211.547 161.458 212.331 161.106 213.041C160.777 213.686 160.28 214.231 159.669 214.619Z" fill="white"/>
<path d="M176.596 204.763C175.626 204.202 174.52 203.918 173.4 203.941C172.22 203.926 171.057 204.228 170.034 204.816C169.011 205.404 168.165 206.256 167.584 207.284C166.981 208.335 166.671 209.529 166.688 210.74C166.664 211.934 166.962 213.112 167.55 214.15C168.138 215.189 168.995 216.05 170.031 216.644C171.103 217.242 172.313 217.549 173.54 217.533C174.532 217.538 175.514 217.343 176.429 216.958C177.31 216.587 178.093 216.014 178.715 215.287L177.164 213.635C176.737 214.138 176.196 214.532 175.586 214.785C174.95 215.046 174.268 215.177 173.581 215.173C172.77 215.189 171.968 214.995 171.254 214.611C170.587 214.247 170.043 213.693 169.69 213.02C169.466 212.586 169.312 212.119 169.235 211.636H179.417C179.47 211.362 179.504 211.121 179.524 210.908C179.544 210.694 179.524 210.506 179.524 210.319C179.544 209.176 179.275 208.047 178.742 207.036C178.248 206.096 177.506 205.31 176.596 204.763ZM171.127 206.769C171.805 206.393 172.571 206.203 173.347 206.221C174.064 206.198 174.775 206.374 175.399 206.729C175.976 207.06 176.442 207.556 176.736 208.153C176.958 208.604 177.098 209.09 177.151 209.59H169.222C169.297 209.141 169.441 208.706 169.649 208.3C169.988 207.652 170.509 207.118 171.147 206.762L171.127 206.769Z" fill="white"/>
<path d="M190.114 198.211H188.355V217.226H190.929V208.868H200.028V206.515H190.929V200.571H200.49V198.211H190.929H190.114Z" fill="white"/>
<path d="M211.889 198.679L209.943 196.733L206.38 201.146L207.503 202.269L211.889 198.679Z" fill="white"/>
<path d="M212.764 206C212.319 205.398 211.743 204.904 211.079 204.556C210.254 204.129 209.334 203.917 208.405 203.941C207.258 203.923 206.13 204.236 205.156 204.843C204.199 205.445 203.415 206.286 202.883 207.284C202.334 208.351 202.048 209.534 202.048 210.734C202.048 211.934 202.334 213.116 202.883 214.184C203.415 215.182 204.204 216.02 205.17 216.611C206.144 217.203 207.265 217.511 208.405 217.5C209.334 217.518 210.252 217.306 211.079 216.885C211.732 216.537 212.298 216.048 212.737 215.454V217.226H215.271V204.215H212.778L212.764 206ZM211.808 213.95C211.435 214.361 210.977 214.686 210.466 214.902C209.954 215.118 209.401 215.22 208.847 215.2C208.077 215.212 207.318 215.013 206.654 214.625C206.021 214.246 205.505 213.7 205.163 213.047C204.796 212.332 204.612 211.537 204.628 210.734C204.613 209.939 204.797 209.153 205.163 208.447C205.502 207.796 206.013 207.25 206.64 206.869C207.304 206.497 208.052 206.301 208.813 206.301C209.574 206.301 210.322 206.497 210.986 206.869C211.603 207.242 212.101 207.782 212.423 208.427C212.774 209.159 212.948 209.963 212.931 210.774C212.975 211.937 212.573 213.072 211.808 213.95Z" fill="white"/>
<path d="M228.909 204.844C227.946 204.241 226.83 203.927 225.694 203.941C224.765 203.923 223.847 204.134 223.02 204.556C222.337 204.906 221.742 205.407 221.281 206.02V197.663H218.814V217.226H221.288V215.428C221.739 216.038 222.325 216.537 223 216.885C223.829 217.302 224.746 217.513 225.674 217.5C226.813 217.521 227.936 217.217 228.909 216.624C229.867 216.033 230.647 215.194 231.169 214.197C231.71 213.128 231.991 211.946 231.991 210.747C231.991 209.549 231.71 208.367 231.169 207.297C230.648 206.293 229.868 205.446 228.909 204.844ZM228.909 213.021C228.565 213.668 228.055 214.213 227.432 214.599C226.776 214.975 226.032 215.173 225.276 215.173C224.519 215.173 223.776 214.975 223.12 214.599C222.496 214.221 221.993 213.674 221.669 213.021C221.32 212.31 221.145 211.526 221.161 210.734C221.145 209.928 221.324 209.13 221.683 208.407C222.005 207.753 222.509 207.206 223.133 206.829C223.79 206.446 224.539 206.252 225.299 206.268C226.049 206.254 226.787 206.448 227.432 206.829C228.06 207.21 228.571 207.756 228.909 208.407C229.27 209.123 229.457 209.913 229.457 210.714C229.457 211.515 229.27 212.305 228.909 213.021Z" fill="white"/>
<path d="M242.568 204.282C242.003 204.048 241.395 203.932 240.783 203.941C240.148 203.898 239.512 204.01 238.93 204.268C238.347 204.525 237.836 204.92 237.44 205.419C237.361 205.53 237.287 205.647 237.22 205.766V204.215H234.753V217.226H237.22V209.805C237.181 209.323 237.238 208.838 237.389 208.379C237.539 207.92 237.779 207.495 238.096 207.13C238.391 206.839 238.742 206.611 239.128 206.46C239.515 206.31 239.928 206.24 240.342 206.254C240.734 206.247 241.124 206.313 241.492 206.448C241.837 206.586 242.145 206.801 242.394 207.077L244.012 205.405C243.621 204.928 243.127 204.544 242.568 204.282Z" fill="white"/>
<path d="M248.264 204.215H245.797V217.226H248.264V204.215Z" fill="white"/>
<path d="M247.034 198.458C246.825 198.451 246.617 198.488 246.424 198.566C246.23 198.644 246.055 198.763 245.911 198.913C245.766 199.059 245.653 199.232 245.577 199.423C245.501 199.614 245.465 199.818 245.469 200.023C245.463 200.232 245.499 200.441 245.575 200.636C245.651 200.831 245.765 201.009 245.911 201.16C246.056 201.309 246.231 201.427 246.424 201.504C246.618 201.581 246.826 201.616 247.034 201.608C247.242 201.615 247.449 201.579 247.642 201.501C247.836 201.424 248.011 201.308 248.157 201.16C248.301 201.008 248.413 200.83 248.488 200.635C248.562 200.44 248.598 200.232 248.592 200.023C248.596 199.818 248.56 199.615 248.486 199.424C248.411 199.234 248.299 199.06 248.157 198.913C248.012 198.764 247.837 198.646 247.643 198.568C247.45 198.489 247.242 198.452 247.034 198.458Z" fill="white"/>
<path d="M255.658 206.883C256.325 206.502 257.082 206.308 257.851 206.321C258.504 206.315 259.152 206.44 259.756 206.689C260.322 206.93 260.824 207.301 261.22 207.772L262.865 206.127C262.254 205.428 261.496 204.873 260.645 204.503C259.763 204.123 258.811 203.932 257.851 203.941C256.638 203.923 255.442 204.23 254.388 204.83C253.372 205.405 252.53 206.24 251.947 207.251C251.364 208.306 251.059 209.492 251.059 210.697C251.059 211.903 251.364 213.089 251.947 214.144C252.531 215.162 253.373 216.008 254.388 216.598C255.439 217.205 256.636 217.517 257.851 217.5C258.816 217.507 259.773 217.311 260.658 216.925C261.505 216.556 262.258 216.004 262.865 215.307L261.247 213.663C260.837 214.13 260.327 214.5 259.756 214.746C259.153 214.997 258.504 215.123 257.851 215.113C257.098 215.131 256.355 214.941 255.703 214.565C255.051 214.189 254.515 213.641 254.154 212.981C253.793 212.277 253.605 211.498 253.605 210.707C253.605 209.917 253.793 209.138 254.154 208.434C254.504 207.789 255.024 207.253 255.658 206.883Z" fill="white"/>
<path d="M274.919 206C274.468 205.411 273.893 204.93 273.234 204.589C272.408 204.163 271.489 203.951 270.56 203.974C269.415 203.958 268.289 204.271 267.317 204.877C266.358 205.477 265.574 206.318 265.044 207.317C264.495 208.384 264.209 209.567 264.209 210.767C264.209 211.967 264.495 213.15 265.044 214.217C265.576 215.216 266.366 216.054 267.331 216.644C268.303 217.236 269.422 217.544 270.56 217.533C271.488 217.551 272.407 217.34 273.234 216.918C273.886 216.571 274.453 216.082 274.892 215.488V217.259H277.446V204.215H274.952L274.919 206ZM273.956 213.95C273.585 214.362 273.128 214.687 272.617 214.903C272.107 215.119 271.555 215.22 271.001 215.2C270.231 215.212 269.473 215.014 268.808 214.625C268.176 214.246 267.66 213.7 267.317 213.047C266.948 212.333 266.764 211.538 266.782 210.734C266.764 209.939 266.948 209.152 267.317 208.447C267.656 207.796 268.167 207.25 268.795 206.869C269.454 206.479 270.208 206.28 270.974 206.294C271.732 206.277 272.48 206.472 273.134 206.856C273.752 207.227 274.251 207.768 274.571 208.414C274.925 209.145 275.099 209.949 275.079 210.761C275.126 211.928 274.724 213.069 273.956 213.95Z" fill="white"/>
<path d="M283.53 206.555C284.027 206.278 284.593 206.151 285.161 206.187C285.788 206.177 286.41 206.307 286.98 206.568C287.508 206.82 287.966 207.196 288.317 207.665L289.908 206.074C289.41 205.375 288.733 204.823 287.949 204.476C287.089 204.104 286.158 203.921 285.221 203.941C284.371 203.917 283.526 204.075 282.741 204.402C282.092 204.687 281.538 205.151 281.143 205.739C280.749 206.345 280.549 207.056 280.568 207.778C280.534 208.447 280.711 209.109 281.076 209.671C281.411 210.145 281.856 210.53 282.373 210.794C282.912 211.071 283.476 211.295 284.058 211.462C284.651 211.636 285.212 211.81 285.743 211.984C286.213 212.13 286.654 212.356 287.046 212.652C287.213 212.784 287.346 212.953 287.435 213.146C287.523 213.339 287.564 213.55 287.555 213.762C287.559 213.987 287.503 214.208 287.391 214.402C287.279 214.597 287.116 214.757 286.919 214.866C286.376 215.163 285.76 215.302 285.141 215.267C284.425 215.279 283.715 215.133 283.062 214.839C282.42 214.541 281.857 214.097 281.417 213.542L279.826 215.126C280.23 215.625 280.711 216.056 281.25 216.403C281.808 216.761 282.413 217.038 283.049 217.226C283.719 217.422 284.415 217.519 285.114 217.513C286.367 217.577 287.602 217.198 288.604 216.443C289.033 216.095 289.374 215.651 289.6 215.147C289.826 214.643 289.932 214.094 289.908 213.542C289.942 212.856 289.765 212.177 289.4 211.596C289.059 211.099 288.599 210.694 288.063 210.419C287.535 210.125 286.977 209.89 286.398 209.717L284.713 209.209C284.266 209.077 283.843 208.871 283.463 208.601C283.304 208.48 283.176 208.323 283.09 208.142C283.004 207.962 282.963 207.764 282.969 207.564C282.976 207.364 283.03 207.169 283.128 206.995C283.225 206.82 283.363 206.672 283.53 206.562V206.555Z" fill="white"/>
<path d="M308.252 206.02C307.791 205.421 307.202 204.932 306.527 204.59C305.713 204.171 304.809 203.96 303.893 203.975C302.752 203.957 301.631 204.271 300.664 204.877C299.713 205.481 298.934 206.322 298.405 207.318C297.856 208.385 297.569 209.567 297.569 210.767C297.569 211.968 297.856 213.15 298.405 214.217C298.933 215.21 299.712 216.047 300.664 216.644C301.635 217.24 302.755 217.549 303.893 217.534C304.822 217.55 305.74 217.338 306.568 216.919C307.238 216.57 307.819 216.071 308.266 215.461V217.26H310.759V197.663H308.266L308.252 206.02ZM306.461 214.619C305.812 215.01 305.065 215.209 304.308 215.194C303.542 215.208 302.787 215.009 302.128 214.619C301.502 214.236 300.991 213.691 300.651 213.041C300.284 212.326 300.1 211.531 300.116 210.727C300.101 209.933 300.285 209.147 300.651 208.441C300.986 207.791 301.492 207.246 302.115 206.863C302.769 206.472 303.519 206.273 304.281 206.288C305.037 206.271 305.781 206.47 306.427 206.863C307.042 207.247 307.545 207.787 307.885 208.427C308.253 209.146 308.434 209.947 308.413 210.754C308.429 211.547 308.253 212.332 307.898 213.041C307.569 213.686 307.072 214.231 306.461 214.619Z" fill="white"/>
<path d="M323.388 204.763C322.418 204.202 321.312 203.918 320.192 203.941C319.012 203.926 317.849 204.228 316.826 204.816C315.803 205.404 314.957 206.256 314.376 207.284C313.773 208.335 313.463 209.529 313.48 210.74C313.456 211.934 313.754 213.112 314.342 214.15C314.93 215.189 315.787 216.05 316.823 216.644C317.895 217.242 319.105 217.549 320.332 217.533C321.324 217.538 322.306 217.343 323.221 216.958C324.102 216.587 324.885 216.014 325.507 215.287L323.922 213.669C323.495 214.172 322.954 214.566 322.345 214.819C321.708 215.08 321.027 215.212 320.339 215.207C319.528 215.222 318.727 215.029 318.013 214.645C317.347 214.278 316.803 213.725 316.448 213.054C316.224 212.619 316.071 212.152 315.994 211.67H326.175C326.229 211.396 326.262 211.155 326.282 210.941C326.302 210.727 326.282 210.54 326.282 210.353C326.302 209.21 326.033 208.081 325.5 207.07C325.023 206.12 324.291 205.322 323.388 204.763ZM317.919 206.769C318.597 206.393 319.363 206.203 320.139 206.221C320.856 206.198 321.567 206.374 322.191 206.729C322.768 207.06 323.234 207.556 323.528 208.153C323.75 208.604 323.89 209.09 323.943 209.59H316.014C316.089 209.141 316.233 208.706 316.441 208.3C316.775 207.655 317.288 207.121 317.919 206.762V206.769Z" fill="white"/>
<path d="M345.035 207.993C344.482 207.568 343.875 207.217 343.23 206.95C342.562 206.675 341.893 206.428 341.225 206.201C340.602 205.992 339.994 205.739 339.406 205.445C338.897 205.205 338.442 204.864 338.069 204.442C337.714 204.009 337.532 203.458 337.561 202.898C337.546 202.535 337.62 202.173 337.777 201.846C337.935 201.518 338.171 201.234 338.464 201.019C339.184 200.539 340.04 200.304 340.904 200.351C341.677 200.337 342.442 200.507 343.137 200.845C343.835 201.213 344.453 201.715 344.955 202.323L346.707 200.571C346.061 199.76 345.237 199.108 344.3 198.666C343.257 198.169 342.113 197.92 340.957 197.937C339.906 197.92 338.863 198.132 337.902 198.559C337.04 198.93 336.301 199.537 335.769 200.31C335.23 201.126 334.957 202.088 334.987 203.065C334.957 203.897 335.131 204.724 335.495 205.472C335.811 206.088 336.27 206.62 336.832 207.023C337.395 207.422 338.003 207.752 338.644 208.006C339.313 208.273 339.981 208.521 340.616 208.748C341.239 208.961 341.846 209.216 342.435 209.51C342.958 209.764 343.415 210.135 343.772 210.593C344.12 211.099 344.294 211.705 344.267 212.318C344.274 212.712 344.184 213.101 344.004 213.451C343.825 213.801 343.561 214.101 343.237 214.324C342.428 214.85 341.473 215.107 340.509 215.06C339.502 215.083 338.504 214.853 337.608 214.391C336.779 213.922 336.068 213.27 335.529 212.486L333.771 214.237C334.529 215.226 335.491 216.04 336.592 216.624C337.786 217.202 339.103 217.484 340.429 217.447C342.107 217.532 343.763 217.028 345.109 216.022C345.685 215.545 346.141 214.939 346.443 214.255C346.745 213.57 346.883 212.825 346.847 212.078C346.878 211.214 346.704 210.355 346.339 209.57C346.026 208.955 345.581 208.416 345.035 207.993Z" fill="white"/>
<path d="M359.101 204.83C358.049 204.243 356.864 203.935 355.658 203.935C354.453 203.935 353.268 204.243 352.215 204.83C351.209 205.416 350.369 206.249 349.775 207.25C349.168 208.286 348.856 209.467 348.873 210.667C348.856 211.882 349.168 213.078 349.775 214.13C350.364 215.145 351.204 215.99 352.215 216.584C353.267 217.176 354.452 217.486 355.658 217.486C356.865 217.486 358.05 217.176 359.101 216.584C360.134 215.983 360.988 215.119 361.575 214.079C362.162 213.039 362.462 211.861 362.444 210.667C362.462 209.482 362.162 208.313 361.574 207.284C360.986 206.255 360.132 205.403 359.101 204.817V204.83ZM359.362 212.967C359.014 213.618 358.493 214.162 357.858 214.538C357.371 214.834 356.83 215.029 356.266 215.11C355.702 215.191 355.128 215.157 354.577 215.011C354.027 214.864 353.512 214.607 353.064 214.256C352.615 213.905 352.242 213.466 351.968 212.967C351.594 212.264 351.405 211.477 351.42 210.68C351.404 209.897 351.593 209.122 351.968 208.434C352.318 207.789 352.838 207.252 353.472 206.883C354.139 206.501 354.897 206.307 355.665 206.321C356.429 206.306 357.183 206.5 357.845 206.883C358.474 207.257 358.994 207.793 359.349 208.434C359.731 209.12 359.925 209.895 359.91 210.68C359.925 211.477 359.736 212.264 359.362 212.967Z" fill="white"/>
<path d="M369.785 200.377C370.025 200.144 370.312 199.964 370.626 199.849C370.941 199.734 371.276 199.686 371.61 199.709C371.977 199.698 372.341 199.767 372.679 199.909C372.977 200.055 373.244 200.255 373.468 200.498L375.086 198.913C374.664 198.443 374.153 198.061 373.582 197.79C372.97 197.52 372.306 197.388 371.637 197.402C370.733 197.382 369.84 197.601 369.049 198.037C368.325 198.439 367.724 199.031 367.311 199.749C366.876 200.521 366.656 201.397 366.676 202.283V204.229H363.474V206.475H366.676V217.239H369.143V206.462H373.281V204.215H369.143V202.27C369.104 201.58 369.334 200.902 369.785 200.377Z" fill="white"/>
<path d="M379.446 198.759H376.979V204.215H373.776V206.461H376.979V217.226H379.446V206.461H382.648V204.215H379.446V198.759Z" fill="white"/>
<path d="M397.522 213.227L394.233 204.215H392.809L389.52 213.227L386.211 204.215H383.637L388.784 217.226H390.208L393.531 208.567L396.834 217.226H398.291L403.412 204.215H400.838L397.522 213.227Z" fill="white"/>
<path d="M415.079 206C414.633 205.398 414.057 204.904 413.394 204.556C412.569 204.129 411.649 203.917 410.72 203.941C409.573 203.926 408.446 204.239 407.471 204.843C406.515 205.447 405.732 206.288 405.198 207.284C404.649 208.351 404.362 209.534 404.362 210.734C404.362 211.934 404.649 213.116 405.198 214.184C405.733 215.179 406.522 216.016 407.484 216.611C408.459 217.203 409.579 217.511 410.72 217.5C411.648 217.518 412.567 217.306 413.394 216.885C414.049 216.541 414.616 216.051 415.052 215.454V217.226H417.546V204.215H415.052L415.079 206ZM414.123 213.95C413.75 214.361 413.292 214.686 412.78 214.902C412.269 215.118 411.716 215.22 411.161 215.2C410.393 215.213 409.637 215.014 408.975 214.625C408.341 214.246 407.823 213.7 407.477 213.047C407.111 212.332 406.927 211.537 406.943 210.734C406.928 209.939 407.111 209.153 407.477 208.447C407.818 207.795 408.331 207.249 408.961 206.869C409.624 206.497 410.371 206.301 411.131 206.301C411.891 206.301 412.638 206.497 413.3 206.869C413.917 207.242 414.416 207.782 414.738 208.427C415.091 209.158 415.266 209.962 415.246 210.774C415.289 211.937 414.887 213.072 414.123 213.95Z" fill="white"/>
<path d="M428.938 204.282C428.374 204.048 427.769 203.932 427.159 203.941C426.524 203.899 425.889 204.012 425.307 204.269C424.725 204.527 424.213 204.921 423.817 205.419C423.736 205.526 423.676 205.653 423.596 205.766V204.215H421.183V217.226H423.643V209.805C423.603 209.322 423.661 208.837 423.813 208.378C423.964 207.918 424.207 207.494 424.525 207.13C424.82 206.839 425.172 206.611 425.558 206.46C425.944 206.31 426.357 206.24 426.772 206.254C427.164 206.248 427.553 206.314 427.922 206.448C428.266 206.586 428.575 206.801 428.824 207.077L430.442 205.405C430.031 204.922 429.517 204.539 428.938 204.282Z" fill="white"/>
<path d="M442.95 207.036C442.453 206.093 441.703 205.306 440.784 204.763C439.817 204.202 438.714 203.918 437.595 203.941C436.415 203.927 435.252 204.229 434.227 204.817C433.203 205.405 432.356 206.257 431.772 207.284C431.175 208.337 430.868 209.53 430.883 210.74C430.859 211.934 431.157 213.112 431.745 214.15C432.334 215.189 433.19 216.05 434.226 216.644C435.298 217.242 436.508 217.549 437.736 217.533C438.727 217.538 439.71 217.343 440.624 216.958C441.506 216.587 442.289 216.014 442.91 215.287L441.319 213.669C440.896 214.173 440.357 214.567 439.748 214.819C439.112 215.079 438.43 215.211 437.742 215.207C436.929 215.222 436.126 215.028 435.409 214.645C434.746 214.278 434.204 213.725 433.851 213.054C433.628 212.619 433.474 212.152 433.397 211.67H443.579C443.632 211.396 443.666 211.155 443.686 210.941C443.706 210.727 443.686 210.54 443.686 210.353C443.726 209.203 443.473 208.062 442.95 207.036ZM435.322 206.762C436 206.386 436.766 206.197 437.542 206.214C438.26 206.191 438.97 206.367 439.594 206.722C440.17 207.056 440.635 207.551 440.931 208.146C441.153 208.597 441.294 209.084 441.346 209.584H433.417C433.492 209.134 433.637 208.699 433.845 208.293C434.177 207.649 434.691 207.117 435.322 206.762Z" fill="white"/>
<path d="M419.779 0H24.2213C10.8443 0 0 10.8451 0 24.2231V160.155C0 173.533 10.8443 184.378 24.2213 184.378H419.779C433.156 184.378 444 173.533 444 160.155V24.2231C444 10.8451 433.156 0 419.779 0Z" fill="#3C3C3B"/>
<path d="M352.744 85.4595C354.413 87.1522 355.349 89.4339 355.349 91.8111C355.349 94.1884 354.413 96.4701 352.744 98.1628L330.442 121.015C330.159 121.303 329.822 121.532 329.45 121.688C329.078 121.844 328.679 121.925 328.275 121.925C327.883 121.929 327.494 121.854 327.132 121.703C326.77 121.553 326.443 121.33 326.17 121.049C325.887 120.774 325.661 120.446 325.505 120.084C325.349 119.722 325.266 119.333 325.26 118.938C325.254 118.544 325.327 118.153 325.472 117.786C325.618 117.42 325.835 117.086 326.109 116.803L348.412 93.964C348.697 93.6856 348.924 93.3528 349.079 92.9854C349.234 92.618 349.314 92.2232 349.314 91.8245C349.314 91.4257 349.234 91.031 349.079 90.6636C348.924 90.2961 348.697 89.9634 348.412 89.685L326.109 66.8592C325.554 66.2882 325.249 65.5202 325.26 64.724C325.272 63.9278 325.599 63.1687 326.17 62.6137C326.74 62.0586 327.508 61.7532 328.305 61.7645C329.101 61.7757 329.86 62.1029 330.415 62.6738L352.717 85.5197L352.744 85.4595ZM394.488 115.887H358.387C357.623 115.938 356.908 116.277 356.386 116.836C355.863 117.394 355.572 118.131 355.572 118.896C355.572 119.661 355.863 120.397 356.386 120.956C356.908 121.514 357.623 121.854 358.387 121.904H394.488C395.251 121.854 395.967 121.514 396.489 120.956C397.012 120.397 397.302 119.661 397.302 118.896C397.302 118.131 397.012 117.394 396.489 116.836C395.967 116.277 395.251 115.938 394.488 115.887Z" fill="#95C11F"/>
<path d="M255.564 102.335C255.57 97.5354 253.911 92.8824 250.869 89.1702C247.827 85.4581 243.591 82.9168 238.884 81.9801C234.177 81.0434 229.291 81.7695 225.059 84.0343C220.828 86.2991 217.514 89.9624 215.683 94.3987C213.851 98.8351 213.616 103.77 215.017 108.36C216.419 112.95 219.37 116.912 223.366 119.569C227.363 122.226 232.158 123.413 236.933 122.928C241.707 122.443 246.166 120.316 249.547 116.91V120.033C249.547 120.831 249.864 121.596 250.428 122.16C250.992 122.724 251.758 123.041 252.556 123.041C253.353 123.041 254.119 122.724 254.683 122.16C255.247 121.596 255.564 120.831 255.564 120.033V102.689C255.564 102.689 255.564 102.642 255.564 102.616C255.564 102.589 255.564 102.429 255.564 102.335ZM234.839 117.044C231.93 117.044 229.087 116.181 226.668 114.565C224.249 112.949 222.364 110.652 221.251 107.964C220.138 105.276 219.846 102.319 220.414 99.4653C220.981 96.6121 222.382 93.9912 224.439 91.9341C226.496 89.877 229.117 88.4761 231.97 87.9085C234.823 87.341 237.78 87.6323 240.468 88.7456C243.155 89.8588 245.452 91.7441 247.068 94.163C248.684 96.5819 249.547 99.4258 249.547 102.335C249.536 106.226 247.985 109.954 245.232 112.703C242.479 115.452 238.75 116.999 234.859 117.004L234.839 117.044Z" fill="#DADADA"/>
<path d="M286.504 81.6216C283.769 81.6189 281.06 82.1594 278.535 83.2119C276.01 84.2643 273.72 85.8078 271.796 87.7526V63.6097C271.796 62.8118 271.479 62.0465 270.915 61.4823C270.351 60.9181 269.586 60.6011 268.788 60.6011C267.99 60.6011 267.225 60.9181 266.66 61.4823C266.096 62.0465 265.779 62.8118 265.779 63.6097V101.98C265.779 101.98 265.779 102.027 265.779 102.054C265.779 102.081 265.779 102.241 265.779 102.335C265.779 106.434 266.995 110.441 269.272 113.85C271.549 117.258 274.786 119.915 278.573 121.483C282.36 123.052 286.527 123.463 290.547 122.663C294.568 121.863 298.26 119.889 301.159 116.99C304.057 114.092 306.031 110.399 306.831 106.378C307.63 102.358 307.22 98.1903 305.651 94.403C304.083 90.6158 301.426 87.3787 298.018 85.1013C294.61 82.8238 290.603 81.6083 286.504 81.6083V81.6216ZM286.504 117.057C283.595 117.057 280.752 116.194 278.333 114.578C275.914 112.962 274.029 110.665 272.916 107.977C271.803 105.289 271.511 102.332 272.079 99.4784C272.646 96.6252 274.047 94.0043 276.104 91.9472C278.161 89.8901 280.782 88.4892 283.635 87.9216C286.488 87.3541 289.445 87.6453 292.133 88.7586C294.82 89.8719 297.117 91.7572 298.733 94.1761C300.35 96.595 301.212 99.4389 301.212 102.348C301.198 106.24 299.642 109.967 296.885 112.714C294.129 115.461 290.396 117.004 286.504 117.004V117.057Z" fill="#DADADA"/>
<path d="M208.425 117.004H183.689V63.6097C183.689 62.8118 183.372 62.0465 182.808 61.4823C182.243 60.9181 181.478 60.6011 180.68 60.6011C179.882 60.6011 179.117 60.9181 178.553 61.4823C177.989 62.0465 177.672 62.8118 177.672 63.6097V120.032C177.671 120.428 177.748 120.819 177.899 121.185C178.05 121.55 178.272 121.882 178.551 122.162C178.831 122.441 179.163 122.663 179.528 122.814C179.893 122.965 180.285 123.042 180.68 123.041H208.438C209.236 123.041 210.001 122.724 210.566 122.16C211.13 121.596 211.447 120.83 211.447 120.032C211.447 119.234 211.13 118.469 210.566 117.905C210.001 117.341 209.236 117.024 208.438 117.024L208.425 117.004Z" fill="#DADADA"/>
<path d="M127.304 70.2959H155.035V61.3301H127.304C122.894 61.3354 118.667 63.0897 115.549 66.2081C112.43 69.3265 110.676 73.5545 110.671 77.9647V80.0306C110.676 84.4408 112.43 88.6688 115.549 91.7872C118.667 94.9056 122.894 96.6599 127.304 96.6652H129.31H138.389C140.419 96.6723 142.363 97.4818 143.798 98.9172C145.234 100.353 146.043 102.297 146.05 104.327V106.4C146.047 108.432 145.239 110.38 143.803 111.819C142.367 113.257 140.421 114.068 138.389 114.075H110.671V123.021H138.389C142.797 123.016 147.023 121.262 150.14 118.145C153.257 115.028 155.01 110.802 155.015 106.393V104.321C155.005 99.9157 153.249 95.6946 150.133 92.5817C147.016 89.4689 142.793 87.7181 138.389 87.7128H136.383H127.304C125.276 87.6986 123.335 86.8833 121.905 85.4443C120.475 84.0053 119.671 82.0594 119.67 80.0306V77.9647C119.675 75.9382 120.48 73.9957 121.909 72.5596C123.339 71.1235 125.278 70.31 127.304 70.2959Z" fill="white"/>
<path d="M67.4359 78.5397V77.9647C67.4412 75.9336 68.2498 73.9871 69.6853 72.5502C71.1208 71.1134 73.0664 70.303 75.0974 70.2959H102.829V61.3301H75.0974C70.6882 61.3354 66.4612 63.0899 63.3441 66.2085C60.2269 69.3271 58.4742 73.5551 58.4707 77.9647V123.021H67.4292V96.6719H93.8701V87.7061H67.4292V78.5397H67.4359Z" fill="white"/>
</g>
<defs>
<clipPath id="clip0_860_354">
<rect width="444" height="217.5" fill="white"/>
</clipPath>
</defs>
</svg>
